<?xml version="1.0" encoding="UTF-8" standalone="no"?>
<!-- Created with Inkscape (http://www.inkscape.org/) -->

<svg
   width="151.61043mm"
   height="150.59595mm"
   viewBox="0 0 151.61043 150.59595"
   version="1.1"
   id="svg1"
   xml:space="preserve"
   xmlns="http://www.w3.org/2000/svg"
   xmlns:svg="http://www.w3.org/2000/svg"><defs
     id="defs1" /><g
     id="layer1"
     transform="translate(-32.18969,-349.42099)"><path
       style="fill:#ffffff"
       d="m 86.347151,492.03577 c -1.673489,-0.46038 -7.775316,-2.08353 -13.559616,-3.607 -5.784299,-1.52348 -10.517033,-2.83088 -10.517187,-2.90535 -1.53e-4,-0.0745 1.874956,-2.00485 4.166909,-4.28975 l 4.167187,-4.15436 1.073434,0.24472 c 1.430533,0.32614 12.785677,0.10047 14.20874,-0.28238 1.657518,-0.44591 2.524626,-0.96044 4.050353,-2.40341 0.863114,-0.8163 1.653465,-1.90747 2.132016,-2.9435 l 0.760456,-1.64634 0.07713,-7.67291 0.07713,-7.67292 5.344404,-5.35781 c 2.939423,-2.9468 5.405023,-5.35783 5.479113,-5.35785 0.0741,-2e-5 0.10333,8.22724 0.065,18.28281 -0.0543,14.24398 -0.14365,18.37926 -0.4043,18.7193 -0.184,0.24006 -2.95927,3.02607 -6.167265,6.19115 -6.764798,6.6743 -5.837198,6.2631 -10.953476,4.8556 z m 28.764329,-5.20857 -6.27475,-6.10765 0.006,-20.94599 0.006,-20.94599 22.30936,-22.35729 22.30936,-22.35729 0.70355,2.88657 c 1.63444,6.7058 4.83457,11.80972 8.77323,13.99248 l 1.5875,0.87977 -0.0695,4.21746 c -0.0636,3.85748 -0.39415,10.3625 -1.51217,29.75689 -0.22207,3.85238 -0.76089,13.70975 -1.19737,21.90527 -0.43648,8.19552 -0.91453,15.12691 -1.06234,15.40308 -0.32049,0.59884 -1.47977,0.96112 -6.74193,2.10688 -2.18281,0.47528 -10.05141,2.39624 -17.48578,4.2688 -7.43436,1.87257 -13.86783,3.40467 -14.2966,3.40467 -0.65932,0 -1.74752,-0.94217 -7.05432,-6.10766 z m 29.4961,-10.50132 c 2.1807,-1.07423 4.16675,-3.16534 5.02061,-5.28617 0.59736,-1.48375 0.61413,-1.76824 0.69445,-11.77912 l 0.0823,-10.25864 -0.78771,-0.78771 -0.78771,-0.78771 h -13.74005 -13.74005 l -0.70009,0.64882 -0.7001,0.64883 v 10.03893 c 0,9.26953 0.0402,10.1678 0.5248,11.72044 0.63316,2.02871 2.06436,3.97197 3.80462,5.16586 2.28588,1.5682 2.92369,1.65957 11.15537,1.59811 l 7.415,-0.0554 z m -15.83707,-3.75272 c -1.35309,-0.3224 -2.54136,-1.14918 -3.39366,-2.36123 l -0.79741,-1.13402 -0.0799,-8.44444 -0.0799,-8.44444 h 10.72937 10.72938 v 7.62489 c 0,9.03481 -0.12261,9.73104 -2.00553,11.38845 -0.82727,0.72819 -1.61359,1.14639 -2.52173,1.34115 -1.4756,0.31646 -11.27995,0.33956 -12.58063,0.0296 z m -47.243411,-6.53915 6.804427,-6.83352 0.07246,4.61462 c 0.07071,4.50332 0.05588,4.64851 -0.614944,6.01962 -0.519297,1.06141 -0.989945,1.58285 -1.92454,2.13225 -1.212174,0.71258 -1.337076,0.729 -6.189483,0.8139 l -4.952344,0.0866 z M 53.201126,459.7958 c -0.08469,-2.07367 -0.710347,-13.56614 -1.390344,-25.53881 -1.035584,-18.23349 -1.179025,-21.83757 -0.883306,-22.19389 0.194178,-0.23397 1.129057,-0.79109 2.07751,-1.23804 4.774934,-2.25016 8.195595,-8.5911 9.273591,-17.19063 0.21475,-1.71313 0.276531,-4.50094 0.181766,-8.20208 -0.152931,-5.97285 -0.800457,-10.9679 -2.195101,-16.93311 -0.38078,-1.62869 -0.754079,-3.57456 -0.829553,-4.32416 -0.122957,-1.2212 -0.07214,-1.40443 0.488681,-1.7621 0.344249,-0.21956 3.185751,-1.40673 6.314449,-2.63817 3.128698,-1.23144 9.040863,-3.62341 13.138145,-5.3155 4.097282,-1.69209 7.575918,-3.07652 7.730301,-3.07652 0.154383,0 1.135773,0.77013 2.180867,1.7114 3.408397,3.06979 7.437389,4.59118 13.771688,5.20033 5.69064,0.54725 12.49189,-0.4861 16.78268,-2.54988 1.28109,-0.61618 2.62027,-1.55561 3.78831,-2.65748 0.9937,-0.93741 1.90058,-1.70437 2.01528,-1.70437 0.11471,0 3.6721,1.42185 7.90533,3.15968 4.23322,1.73782 10.31615,4.18952 13.5176,5.44821 3.20146,1.25869 5.97541,2.41602 6.16433,2.57185 0.18893,0.15583 0.30799,0.49302 0.26459,0.74932 -0.0434,0.25629 -10.11582,10.54632 -22.38314,22.86673 l -22.30422,22.40075 0.0792,-6.57171 0.0792,-6.57171 1.70049,-2.91042 c 2.41588,-4.13482 5.82207,-11.28301 7.42229,-15.57631 1.1921,-3.19834 3.8418,-11.93306 4.35788,-14.36573 l 0.17776,-0.83788 -1.94583,0.75557 c -8.08517,3.13948 -22.670141,2.91354 -29.396457,-0.45539 -1.142666,-0.57232 -1.263778,-0.58965 -1.130991,-0.16185 0.08179,0.2635 0.503234,1.84831 0.936536,3.5218 1.944579,7.5103 4.345217,13.61107 9.065742,23.03888 l 3.65321,7.29617 v 8.93399 8.93398 l -16.898055,16.9089 -16.898053,16.90891 h -1.775424 c -1.623262,0 -1.844034,0.0686 -2.575964,0.80054 -0.672059,0.67206 -0.781825,0.95869 -0.683926,1.78594 0.06414,0.54196 0.210277,1.19929 0.324754,1.46071 0.167875,0.38337 -0.928482,1.59901 -5.667272,6.28386 -3.231477,3.19469 -5.96658,5.80853 -6.078006,5.80853 -0.111427,0 -0.271888,-1.69664 -0.356581,-3.77031 z"
       id="path1-9" /><rect
       style="fill:#ff0000;stroke-width:0"
       id="rect1"
       width="12.570219"
       height="201.1235"
       x="371.24979"
       y="121.96128"
       transform="rotate(45.217979)" /></g></svg>
