<?xml version="1.0" encoding="UTF-8" standalone="no"?>
<svg
   xmlns:dc="http://purl.org/dc/elements/1.1/"
   xmlns:cc="http://creativecommons.org/ns#"
   xmlns:rdf="http://www.w3.org/1999/02/22-rdf-syntax-ns#"
   xmlns:svg="http://www.w3.org/2000/svg"
   xmlns="http://www.w3.org/2000/svg"
   xmlns:sodipodi="http://sodipodi.sourceforge.net/DTD/sodipodi-0.dtd"
   xmlns:inkscape="http://www.inkscape.org/namespaces/inkscape"
   width="24"
   height="24"
   fill-rule="evenodd"
   clip-rule="evenodd"
   version="1.1"
   id="svg4"
   sodipodi:docname="trash.svg"
   inkscape:version="0.92.3 (2405546, 2018-03-11)">
  <metadata
     id="metadata10">
    <rdf:RDF>
      <cc:Work
         rdf:about="">
        <dc:format>image/svg+xml</dc:format>
        <dc:type
           rdf:resource="http://purl.org/dc/dcmitype/StillImage" />
      </cc:Work>
    </rdf:RDF>
  </metadata>
  <defs
     id="defs8" />
  <sodipodi:namedview
     pagecolor="#ffffff"
     bordercolor="#666666"
     borderopacity="1"
     objecttolerance="10"
     gridtolerance="10"
     guidetolerance="10"
     inkscape:pageopacity="0"
     inkscape:pageshadow="2"
     inkscape:window-width="3440"
     inkscape:window-height="1369"
     id="namedview6"
     showgrid="false"
     inkscape:zoom="9.8333333"
     inkscape:cx="12"
     inkscape:cy="12"
     inkscape:window-x="-8"
     inkscape:window-y="535"
     inkscape:window-maximized="1"
     inkscape:current-layer="svg4" />
  <path
     d="M19 24h-14c-1.104 0-2-.896-2-2v-17h-1v-2h6v-1.5c0-.827.673-1.5 1.5-1.5h5c.825 0 1.5.671 1.5 1.5v1.5h6v2h-1v17c0 1.104-.896 2-2 2zm0-19h-14v16.5c0 .276.224.5.5.5h13c.276 0 .5-.224.5-.5v-16.5zm-9 4c0-.552-.448-1-1-1s-1 .448-1 1v9c0 .552.448 1 1 1s1-.448 1-1v-9zm6 0c0-.552-.448-1-1-1s-1 .448-1 1v9c0 .552.448 1 1 1s1-.448 1-1v-9zm-2-7h-4v1h4v-1z"
     id="path2"
     style="fill:#ffffff" />
</svg>
